<svg width="34" height="34" viewBox="0 0 34 34" fill="none" xmlns="http://www.w3.org/2000/svg">
<g clip-path="url(#clip0)">
<path d="M28.9532 0C27.2388 0 25.6651 0.629996 24.4431 1.66826C27.5756 3.12176 30.1048 5.49771 31.7617 8.3047C31.8687 7.89716 31.9414 7.47668 31.9414 7.03906V0.996094C31.9414 0.44552 31.4959 0 30.9453 0H28.9532Z" fill="#191919"/>
<path d="M2.05859 7.03906C2.05859 7.47668 2.12879 7.89909 2.2365 8.30775C3.88895 5.5072 6.40893 3.13477 9.53076 1.68008C8.31406 0.647394 6.76089 0 5.04688 0H3.05469C2.50411 0 2.05859 0.44552 2.05859 0.996094V7.03906Z" fill="#191919"/>
<path d="M23.6534 30.7223C21.6095 31.5477 19.3612 32.0078 17 32.0078C14.6386 32.0074 12.3902 31.5468 10.3462 30.7211C11.0451 32.6281 12.8619 34 15.0078 34H18.9922C21.1377 34 22.9542 32.6287 23.6534 30.7223Z" fill="#191919"/>
<path d="M17.996 26.0487C17.8092 26.0264 17.4961 26.0283 17.2714 26.0303H16.7286C16.5087 26.0264 16.2062 26.0264 16.0165 26.0468C16.0622 26.6362 16.4864 27.0273 17 27.0273C17.5437 27.0273 17.9864 26.5896 17.996 26.0487Z" fill="#191919"/>
<path d="M10.1975 15.0742C10.609 16.2337 11.717 17.0664 13.0156 17.0664H13.8415C13.43 15.9069 12.322 15.0742 11.0234 15.0742H10.1975Z" fill="#191919"/>
<path d="M10.3533 28.5411C10.1096 27.9425 9.98916 27.2781 10.0449 26.5818C10.1937 24.7238 11.219 23.3173 12.2112 21.9573C12.9135 20.9943 13.5867 20.0712 13.8707 19.0586H13.0156C10.2695 19.0586 8.03516 16.8242 8.03516 14.0781C8.03516 13.5275 8.48068 13.082 9.03125 13.082H11.0234C13.7695 13.082 16.0039 15.3164 16.0039 18.0625C16.0039 20.1373 14.8434 21.7278 13.8201 23.1315C12.9533 24.3201 12.1343 25.4427 12.0312 26.7413C11.9446 27.8172 12.5506 28.7296 13.5049 28.9582C14.2512 29.1432 14.8708 28.9003 15.3161 28.4968C14.5297 27.958 14.0117 27.0546 14.0117 26.0312C14.0117 24.4275 15.1477 24.0185 16.7441 24.0381H17.2558C18.8543 24.0142 19.9883 24.4323 19.9883 26.0312C19.9883 27.0538 19.4709 27.9566 18.6853 28.4956C19.1309 28.8975 19.7507 29.1399 20.495 28.9582C21.4493 28.7297 22.0553 27.8172 21.9687 26.7413C21.8656 25.4427 21.0465 24.3201 20.1799 23.1315C19.1566 21.7278 17.9961 20.1373 17.9961 18.0625C17.9961 15.3164 20.2305 13.082 22.9766 13.082H24.9688C25.5193 13.082 25.9648 13.5275 25.9648 14.0781C25.9648 16.8242 23.7305 19.0586 20.9844 19.0586H20.1293C20.4133 20.0712 21.0865 20.9943 21.7888 21.9573C22.781 23.3173 23.8063 24.7238 23.9551 26.5818C24.0112 27.2825 23.8895 27.9512 23.6424 28.5527C28.5971 26.2512 31.9414 21.4774 31.9414 16.0703C31.9414 10.3165 28.0718 4.94446 22.3132 2.89975C20.5262 2.26457 18.5282 2.5729 17 3.67597C15.4728 2.57383 13.4758 2.26351 11.6868 2.89975C5.92815 4.94446 2.05859 10.3165 2.05859 16.0703C2.05859 21.529 5.44545 26.2526 10.3533 28.5411ZM24.9688 23.043C24.4186 23.043 23.9727 22.597 23.9727 22.0469C23.9727 21.4966 24.4186 21.0508 24.9688 21.0508C25.5189 21.0508 25.9648 21.4966 25.9648 22.0469C25.9648 22.597 25.5189 23.043 24.9688 23.043ZM26.9609 17.0664C27.511 17.0664 27.957 17.5122 27.957 18.0625C27.957 18.6126 27.511 19.0586 26.9609 19.0586C26.4108 19.0586 25.9648 18.6126 25.9648 18.0625C25.9648 17.5122 26.4108 17.0664 26.9609 17.0664ZM20.9844 9.09764C21.5345 9.09764 21.9805 9.54349 21.9805 10.0937C21.9805 10.6438 21.5345 11.0898 20.9844 11.0898C20.4343 11.0898 19.9883 10.6438 19.9883 10.0937C19.9883 9.54349 20.4343 9.09764 20.9844 9.09764ZM17 11.0898C17.5501 11.0898 17.9961 11.5357 17.9961 12.0859C17.9961 12.636 17.5501 13.082 17 13.082C16.4499 13.082 16.0039 12.636 16.0039 12.0859C16.0039 11.5357 16.4499 11.0898 17 11.0898ZM13.0156 9.09764C13.5657 9.09764 14.0117 9.54349 14.0117 10.0937C14.0117 10.6438 13.5657 11.0898 13.0156 11.0898C12.4655 11.0898 12.0195 10.6438 12.0195 10.0937C12.0195 9.54349 12.4655 9.09764 13.0156 9.09764ZM9.03125 21.0508C9.58136 21.0508 10.0273 21.4966 10.0273 22.0469C10.0273 22.597 9.58136 23.043 9.03125 23.043C8.48114 23.043 8.03516 22.597 8.03516 22.0469C8.03516 21.4966 8.48114 21.0508 9.03125 21.0508ZM7.03906 17.0664C7.58917 17.0664 8.03516 17.5122 8.03516 18.0625C8.03516 18.6126 7.58917 19.0586 7.03906 19.0586C6.48895 19.0586 6.04297 18.6126 6.04297 18.0625C6.04297 17.5122 6.48895 17.0664 7.03906 17.0664Z" fill="#191919"/>
<path d="M23.8024 15.0742H22.9765C21.6779 15.0742 20.57 15.9069 20.1584 17.0664H20.9843C22.283 17.0664 23.3909 16.2337 23.8024 15.0742Z" fill="#191919"/>
</g>
<defs>
<clipPath id="clip0">
<rect width="34" height="34" fill="white"/>
</clipPath>
</defs>
</svg>
