<svg width="74" height="74" viewBox="0 0 74 74" fill="none" xmlns="http://www.w3.org/2000/svg">
<g clip-path="url(#clip0)">
<path d="M63.0156 0C59.2843 0 55.8592 1.37117 53.1996 3.63091C60.0174 6.79441 65.522 11.9656 69.1282 18.0749C69.3612 17.1879 69.5195 16.2728 69.5195 15.3203V2.16797C69.5195 0.96966 68.5498 0 67.3515 0H63.0156Z" fill="white"/>
<path d="M4.48047 15.3203C4.48047 16.2728 4.63324 17.1921 4.86767 18.0816C8.46418 11.9863 13.9489 6.82274 20.7434 3.65664C18.0953 1.40904 14.7149 0 10.9844 0H6.64844C5.45013 0 4.48047 0.96966 4.48047 2.16797V15.3203Z" fill="white"/>
<path d="M51.4808 66.8662C47.0323 68.6626 42.1391 69.6641 37 69.6641C31.8603 69.663 26.9667 68.6606 22.5181 66.8636C24.0393 71.014 27.9933 74 32.664 74H41.3359C46.0056 74 49.9591 71.0153 51.4808 66.8662Z" fill="white"/>
<path d="M39.168 56.6944C38.7614 56.6457 38.0798 56.6499 37.5907 56.6542H36.4093C35.9308 56.6457 35.2724 56.6457 34.8595 56.6902C34.9591 57.9731 35.8822 58.8242 37 58.8242C38.1834 58.8242 39.1469 57.8715 39.168 56.6944Z" fill="white"/>
<path d="M22.1947 32.8086C23.0902 35.3323 25.5017 37.1445 28.3282 37.1445H30.1257C29.2302 34.6209 26.8187 32.8086 23.9922 32.8086H22.1947Z" fill="white"/>
<path d="M22.5337 62.1188C22.0031 60.816 21.7411 59.37 21.8624 57.8546C22.1863 53.8108 24.4178 50.7494 26.5773 47.7896C28.1058 45.6936 29.5709 43.6845 30.1891 41.4805H28.3281C22.3513 41.4805 17.4883 36.6175 17.4883 30.6407C17.4883 29.4423 18.4579 28.4727 19.6562 28.4727H23.9922C29.969 28.4727 34.832 33.3357 34.832 39.3125C34.832 43.8284 32.3062 47.2899 30.079 50.345C28.1926 52.9321 26.4099 55.3754 26.1856 58.2018C25.9971 60.5433 27.3161 62.5292 29.393 63.0268C31.0174 63.4293 32.3658 62.9008 33.3351 62.0224C31.6234 60.8499 30.4961 58.8835 30.4961 56.6563C30.4961 53.1659 32.9684 52.2757 36.4431 52.3182H37.5567C41.0359 52.2663 43.5039 53.1763 43.5039 56.6563C43.5039 58.8819 42.3779 60.8467 40.6679 62.0198C41.6379 62.8945 42.9868 63.4222 44.6068 63.0268C46.6837 62.5293 48.0027 60.5433 47.8143 58.2018C47.5898 55.3753 45.8072 52.9321 43.9209 50.345C41.6938 47.2899 39.168 43.8284 39.168 39.3125C39.168 33.3357 44.031 28.4727 50.0078 28.4727H54.3438C55.5421 28.4727 56.5117 29.4423 56.5117 30.6407C56.5117 36.6175 51.6487 41.4805 45.6719 41.4805H43.8109C44.4291 43.6845 45.8942 45.6936 47.4227 47.7896C49.5822 50.7494 51.8137 53.8108 52.1376 57.8546C52.2596 59.3797 51.9947 60.835 51.457 62.1443C62.2408 57.135 69.5195 46.7451 69.5195 34.9766C69.5195 22.4535 61.0976 10.7615 48.5639 6.31128C44.6748 4.92884 40.3261 5.5999 37 8.0007C33.6761 5.60192 29.3296 4.92653 25.4361 6.31128C12.9024 10.7615 4.48047 22.4535 4.48047 34.9766C4.48047 46.8574 11.8519 57.138 22.5337 62.1188ZM54.3438 50.1524C53.1465 50.1524 52.1758 49.1817 52.1758 47.9844C52.1758 46.7868 53.1465 45.8164 54.3438 45.8164C55.541 45.8164 56.5117 46.7868 56.5117 47.9844C56.5117 49.1817 55.541 50.1524 54.3438 50.1524ZM58.6797 37.1446C59.877 37.1446 60.8477 38.1149 60.8477 39.3125C60.8477 40.5098 59.877 41.4805 58.6797 41.4805C57.4824 41.4805 56.5117 40.5098 56.5117 39.3125C56.5117 38.1149 57.4824 37.1446 58.6797 37.1446ZM45.6719 19.8008C46.8692 19.8008 47.8398 20.7712 47.8398 21.9688C47.8398 23.1661 46.8692 24.1368 45.6719 24.1368C44.4746 24.1368 43.5039 23.1661 43.5039 21.9688C43.5039 20.7712 44.4746 19.8008 45.6719 19.8008ZM37 24.1368C38.1973 24.1368 39.168 25.1071 39.168 26.3047C39.168 27.502 38.1973 28.4727 37 28.4727C35.8027 28.4727 34.832 27.502 34.832 26.3047C34.832 25.1071 35.8027 24.1368 37 24.1368ZM28.3281 19.8008C29.5254 19.8008 30.4961 20.7712 30.4961 21.9688C30.4961 23.1661 29.5254 24.1368 28.3281 24.1368C27.1308 24.1368 26.1602 23.1661 26.1602 21.9688C26.1602 20.7712 27.1308 19.8008 28.3281 19.8008ZM19.6562 45.8164C20.8535 45.8164 21.8242 46.7868 21.8242 47.9844C21.8242 49.1817 20.8535 50.1524 19.6562 50.1524C18.459 50.1524 17.4883 49.1817 17.4883 47.9844C17.4883 46.7868 18.459 45.8164 19.6562 45.8164ZM15.3203 37.1446C16.5176 37.1446 17.4883 38.1149 17.4883 39.3125C17.4883 40.5098 16.5176 41.4805 15.3203 41.4805C14.123 41.4805 13.1523 40.5098 13.1523 39.3125C13.1523 38.1149 14.123 37.1446 15.3203 37.1446Z" fill="white"/>
<path d="M51.8054 32.8086H50.0079C47.1814 32.8086 44.7701 34.6209 43.8744 37.1445H45.6719C48.4984 37.1445 50.9097 35.3323 51.8054 32.8086Z" fill="white"/>
</g>
<defs>
<clipPath id="clip0">
<rect width="74" height="74" fill="white"/>
</clipPath>
</defs>
</svg>
